<?xml version="1.0" encoding="UTF-8"?>
<svg version="1.1" xmlns="http://www.w3.org/2000/svg" width="256" height="256">
<path d="M0 0 C2.52096309 2.2275585 4.98034211 4.50638231 7.42578125 6.81640625 C8.17601562 7.5021875 8.92625 8.18796875 9.69921875 8.89453125 C25.98970564 24.32762409 36.54719771 45.38249626 42.42578125 66.81640625 C42.93431641 68.57791016 42.93431641 68.57791016 43.453125 70.375 C47.81414076 88.72342116 47.64848156 112.72560785 42.42578125 130.81640625 C42.23773926 131.50202637 42.04969727 132.18764648 41.85595703 132.89404297 C35.86704063 154.35790007 24.6747347 172.67354863 9.42578125 188.81640625 C8.74 189.56664062 8.05421875 190.316875 7.34765625 191.08984375 C-8.08543659 207.38033064 -29.14030876 217.93782271 -50.57421875 223.81640625 C-51.74855469 224.15542969 -52.92289063 224.49445313 -54.1328125 224.84375 C-72.48123366 229.20476576 -96.48342035 229.03910656 -114.57421875 223.81640625 C-115.25983887 223.62836426 -115.94545898 223.44032227 -116.65185547 223.24658203 C-138.11571257 217.25766563 -156.43136113 206.0653597 -172.57421875 190.81640625 C-173.32445312 190.130625 -174.0746875 189.44484375 -174.84765625 188.73828125 C-191.13814314 173.30518841 -201.69563521 152.25031624 -207.57421875 130.81640625 C-207.91324219 129.64207031 -208.25226563 128.46773437 -208.6015625 127.2578125 C-212.96257826 108.90939134 -212.79691906 84.90720465 -207.57421875 66.81640625 C-207.29215576 65.78797607 -207.29215576 65.78797607 -207.00439453 64.73876953 C-201.01547813 43.27491243 -189.8231722 24.95926387 -174.57421875 8.81640625 C-173.8884375 8.06617188 -173.20265625 7.3159375 -172.49609375 6.54296875 C-157.06300091 -9.74751814 -136.00812874 -20.30501021 -114.57421875 -26.18359375 C-113.39988281 -26.52261719 -112.22554688 -26.86164062 -111.015625 -27.2109375 C-72.53579317 -36.35674638 -29.92130312 -25.38089294 0 0 Z " fill="#1185FE" transform="translate(210.57421875,29.18359375)"/>
<path d="M0 0 C22.67346784 10.10847009 36.95486229 31.99549249 49.98242188 52.11572266 C51.33852066 54.13158754 52.77734922 56.06808367 54.25 58 C54.78367187 57.06800781 55.31734375 56.13601562 55.8671875 55.17578125 C61.062144 46.2340303 66.72001119 38.01086654 73.25 30 C73.69102051 29.45069824 74.13204102 28.90139648 74.58642578 28.33544922 C84.80373475 15.64389462 96.37081862 3.29306046 112.25 -2 C117.04566077 -2.39308695 119.31907584 -2.48270142 123.625 -0.25 C126.69053838 2.37760432 128.0352671 4.23270055 128.5246582 8.26049805 C128.55400383 11.07027298 128.57746927 13.8775222 128.5625 16.6875 C128.55903564 17.73881104 128.55557129 18.79012207 128.55200195 19.87329102 C128.44603478 27.7833601 127.85793362 35.58230866 126.9375 43.4375 C126.81995361 44.45996826 126.70240723 45.48243652 126.58129883 46.53588867 C125.15550188 57.58239856 122.68659236 65.37638836 114.25 73 C107.75707454 77.93405128 99.08618437 78.65315581 91.25 80 C91.89066406 80.23074219 92.53132813 80.46148437 93.19140625 80.69921875 C100.75163439 83.54979657 107.82996151 86.47253136 111.58203125 94.05859375 C113.2160196 98.80767101 113.15497058 102.83148559 111.21484375 107.48046875 C105.01315629 118.62277631 96.30428094 125.98190635 84.25 130 C78.78874888 130.64250013 75.61761464 129.64544647 71.2265625 126.59375 C62.04081113 119.1870572 57.78078977 109.03993422 54.25 98 C53.95867187 98.66644531 53.66734375 99.33289063 53.3671875 100.01953125 C42.64143063 124.1356198 42.64143063 124.1356198 32.75 128.9375 C26.91656158 130.70836523 22.96747964 130.55963143 17.4375 128.0625 C8.28363951 123.13671837 0.13945224 115.60446227 -4.0625 106 C-5.19635565 101.05226624 -5.53698389 97.54248843 -3.1875 92.9375 C2.10229529 86.56261849 7.53081082 82.97565116 15.25 80 C14.64414063 79.90203125 14.03828125 79.8040625 13.4140625 79.703125 C3.53723119 77.94049049 -6.28346211 75.20318453 -12.75 67 C-16.25974644 60.75295999 -17.59641307 54.61627812 -18.4375 47.5625 C-18.55416016 46.68529297 -18.67082031 45.80808594 -18.79101562 44.90429688 C-19.134389 42.27176766 -19.44862501 39.63764769 -19.75 37 C-19.89574463 35.73941772 -19.89574463 35.73941772 -20.04443359 34.45336914 C-20.66472158 28.73324482 -20.96249324 23.0650996 -21 17.3125 C-21.020625 16.51005859 -21.04125 15.70761719 -21.0625 14.88085938 C-21.09773433 9.48560259 -20.30428319 5.77700077 -17.75 1 C-12.13011281 -3.83934731 -6.44045288 -2.46620188 0 0 Z " fill="#FDFEFE" transform="translate(72.75,69)"/>
</svg>
