<?xml version="1.0" encoding="UTF-8"?>
<svg version="1.1" xmlns="http://www.w3.org/2000/svg" width="256" height="256">
<path d="M0 0 C2.55014163 0.00522146 5.10027104 0.00714917 7.65041733 0.00866318 C26.98306427 0.02863875 46.29562853 0.09996191 65.57952499 1.63015366 C66.33398911 1.68891678 67.08845322 1.7476799 67.86577988 1.80822372 C85.81296992 3.27238412 104.02581373 5.17571727 116.76702499 19.31765366 C137.2325086 47.19518363 132.15860424 91.86276447 132.08467865 125.15552902 C132.07945222 127.66509884 132.07752836 130.17465623 132.07601547 132.6842308 C132.05592647 151.83610968 131.96670954 170.96394023 130.45452499 190.06765366 C130.39576187 190.82398087 130.33699875 191.58030807 130.27645493 192.35955429 C128.76069783 210.99295332 126.62738542 229.2910236 111.76702499 242.31765366 C97.95968755 252.37376294 82.16617721 253.71528716 65.51702499 255.00515366 C64.32013046 255.09896317 64.32013046 255.09896317 63.09905624 255.19466782 C18.02335888 258.55010652 -29.3428492 258.77348797 -74.23297501 253.31765366 C-75.42447159 253.17384262 -76.61596817 253.03003159 -77.84357071 252.88186264 C-89.7482164 251.26553739 -101.18384959 246.63009471 -109.23297501 237.31765366 C-129.68483593 209.3308966 -124.6222352 164.89005771 -124.55062866 131.56100845 C-124.54540892 128.97238038 -124.54347998 126.38376434 -124.54196548 123.79513168 C-124.52230284 104.49075393 -124.49856209 85.19541719 -122.92047501 65.94265366 C-122.86171188 65.21388016 -122.80294876 64.48510666 -122.74240494 63.73424911 C-121.23694125 45.94130357 -119.23924549 27.9366364 -105.23297501 15.31765366 C-77.4333491 -5.09063893 -33.15467542 -0.07234766 0 0 Z " fill="#00B2EF" transform="translate(124.23297500610352,-0.3176536560058594)"/>
<path d="M0 0 C2.48828125 1.38671875 2.48828125 1.38671875 4.6328125 3.0234375 C6.8512388 4.65339703 8.55453354 4.92115196 11.2890625 4.8203125 C15.32301621 4.02498592 18.98570686 2.26015086 22.71875 0.578125 C24.99910628 -0.40284632 27.06834183 -1.11081173 29.48828125 -1.61328125 C29.19930816 5.1775863 26.44637671 8.91275694 22.48828125 14.38671875 C27.93328125 12.90171875 27.93328125 12.90171875 33.48828125 11.38671875 C33.81828125 12.37671875 34.14828125 13.36671875 34.48828125 14.38671875 C30.97799885 19.86573096 26.37498915 25.07491766 21.48828125 29.38671875 C20.82828125 29.38671875 20.16828125 29.38671875 19.48828125 29.38671875 C19.40787598 30.07185547 19.3274707 30.75699219 19.24462891 31.46289062 C18.87283714 34.60482277 18.49311938 37.74574961 18.11328125 40.88671875 C17.98695313 41.964375 17.860625 43.04203125 17.73046875 44.15234375 C14.85337177 67.74453901 5.35403431 87.71793799 -11.51171875 104.38671875 C-12.60419922 105.49466797 -12.60419922 105.49466797 -13.71875 106.625 C-30.94896474 123.08800666 -55.79456998 129.94484005 -79.12353516 129.67236328 C-85.38704106 129.49590723 -91.40168409 128.81811911 -97.51171875 127.38671875 C-98.62933594 127.13019531 -99.74695313 126.87367188 -100.8984375 126.609375 C-109.26917018 124.46374165 -117.46911781 121.50861034 -124.51171875 116.38671875 C-125.4296875 114.23046875 -125.4296875 114.23046875 -125.51171875 112.38671875 C-123.6469302 110.5219302 -120.92990467 111.03872391 -118.42822266 110.84204102 C-106.69694941 109.89429838 -95.59056721 107.86058583 -85.51171875 101.38671875 C-86.29675781 101.02320313 -87.08179688 100.6596875 -87.890625 100.28515625 C-97.45417607 95.70873304 -104.84848991 91.2204733 -109.51171875 81.38671875 C-110.32421875 77.88671875 -110.32421875 77.88671875 -110.51171875 75.38671875 C-107.54171875 74.89171875 -107.54171875 74.89171875 -104.51171875 74.38671875 C-105.35734375 73.89171875 -106.20296875 73.39671875 -107.07421875 72.88671875 C-113.92672238 68.26978368 -119.39730138 61.43431942 -121.51171875 53.38671875 C-121.8038103 49.69008465 -121.76052618 46.08427358 -121.51171875 42.38671875 C-118.87171875 42.71671875 -116.23171875 43.04671875 -113.51171875 43.38671875 C-113.92164063 42.80664062 -114.3315625 42.2265625 -114.75390625 41.62890625 C-115.29273438 40.84773438 -115.8315625 40.0665625 -116.38671875 39.26171875 C-117.18722656 38.11316406 -117.18722656 38.11316406 -118.00390625 36.94140625 C-122.72722772 28.93868024 -122.62752369 19.44627261 -120.9765625 10.48046875 C-119.30344678 4.8485601 -119.30344678 4.8485601 -116.40234375 3.15625 C-115.7784375 2.90230469 -115.15453125 2.64835937 -114.51171875 2.38671875 C-114.16882813 2.83660156 -113.8259375 3.28648438 -113.47265625 3.75 C-100.21973684 20.03868666 -79.82999288 31.7615505 -59.05859375 34.91015625 C-56.53667847 35.14941488 -54.04354546 35.32771431 -51.51171875 35.38671875 C-51.50914063 34.5153125 -51.5065625 33.64390625 -51.50390625 32.74609375 C-51.15651187 22.04634694 -48.56847453 13.48318719 -41.26171875 5.44921875 C-29.57718154 -5.21813776 -13.94265772 -6.42172202 0 0 Z " fill="#FDFEFE" transform="translate(176.51171875,66.61328125)"/>
</svg>
