<?xml version="1.0" encoding="UTF-8"?>
<svg version="1.1" xmlns="http://www.w3.org/2000/svg" width="256" height="256">
<path d="M0 0 C0.82994476 0.03911499 1.65988953 0.07822998 2.51498413 0.11853027 C10.79030297 0.52611232 19.02110727 1.160509 27.25390625 2.09765625 C28.29206482 2.21444229 28.29206482 2.21444229 29.35119629 2.33358765 C40.67762524 3.70938795 48.35479505 7.56693476 56 16.125 C60.47258829 22.1878419 61.75218768 29.84118214 63 37.125 C63.13825195 37.90875 63.27650391 38.6925 63.41894531 39.5 C68.7402238 71.40364707 68.00567437 106.21978503 63 138.125 C62.88785156 138.90004883 62.77570313 139.67509766 62.66015625 140.47363281 C60.9778809 151.78745374 56.86428377 159.43256641 47.99609375 166.69140625 C24.16864786 183.80426856 -24.25114999 176.29385904 -52.39672852 176.25537109 C-56.59238239 176.24967904 -60.78797275 176.25306324 -64.98362446 176.25881004 C-158.80911258 176.36785644 -158.80911258 176.36785644 -172.12109375 164.18359375 C-181.86230542 153.90616859 -183.31625 142.69605027 -185 129.125 C-185.17345947 127.83287598 -185.34691895 126.54075195 -185.52563477 125.20947266 C-186.22200018 118.83758809 -186.18188631 112.45805093 -186.203125 106.0546875 C-186.20595238 105.38556461 -186.20877975 104.71644173 -186.21169281 104.02704239 C-186.22661506 100.47326529 -186.2358837 96.91952792 -186.24023438 93.36572266 C-186.24458493 90.48017494 -186.25835214 87.59493199 -186.28125 84.70947266 C-186.72591135 27.51375452 -186.72591135 27.51375452 -173.40234375 12.30078125 C-166.67994136 5.99157617 -157.69167607 3.60424577 -148.75 2.5 C-147.80680908 2.38229248 -146.86361816 2.26458496 -145.8918457 2.14331055 C-97.95129434 -3.38350979 -48.14983449 -2.3058185 0 0 Z " fill="#FF0000" transform="translate(188,39.875)"/>
<path d="M0 0 C3.77269018 1.50907607 6.89887754 2.99457229 10.3671875 5.01953125 C11.40665527 5.62345703 12.44612305 6.22738281 13.51708984 6.84960938 C14.6252002 7.49736328 15.73331055 8.14511719 16.875 8.8125 C19.21768375 10.17501633 21.56189783 11.53488806 23.90625 12.89453125 C24.49884613 13.23855988 25.09144226 13.5825885 25.70199585 13.93704224 C31.56682315 17.33780425 37.46726115 20.67440933 43.375 24 C50.95501476 28.26992242 58.51130116 32.57119961 66 37 C63.63728605 39.61712286 61.16564147 41.17321749 58.08203125 42.86328125 C57.08647217 43.41363037 56.09091309 43.96397949 55.06518555 44.53100586 C53.99179932 45.11889893 52.91841309 45.70679199 51.8125 46.3125 C49.54327791 47.56852029 47.27507479 48.82638301 45.0078125 50.0859375 C44.42809189 50.4078154 43.84837128 50.7296933 43.25108337 51.06132507 C35.27720816 55.49974246 27.41447117 60.1294275 19.54296875 64.74609375 C18.19984619 65.53282471 18.19984619 65.53282471 16.82958984 66.33544922 C14.78425623 67.53864893 12.74347312 68.74959548 10.70556641 69.96533203 C9.6232373 70.60712402 8.5409082 71.24891602 7.42578125 71.91015625 C6.43618408 72.50062744 5.44658691 73.09109863 4.42700195 73.69946289 C2 75 2 75 0 75 C0 50.25 0 25.5 0 0 Z " fill="#FFFAFA" transform="translate(103,90)"/>
</svg>
